HIERARCHY
ROOT Hips
{
	OFFSET 0.00000 0.00000 0.00000
	CHANNELS 6 Xposition Yposition Zposition Zrotation Yrotation Xrotation 
	JOINT LHipJoint
	{
		OFFSET 0 0 0
		CHANNELS 3 Zrotation Yrotation Xrotation
		JOINT LeftHip
		{
			OFFSET 1.44361 -1.63093 0.70831
			CHANNELS 3 Zrotation Yrotation Xrotation
			JOINT LeftKnee
			{
				OFFSET 2.20103 -6.04728 0.00000
				CHANNELS 3 Zrotation Yrotation Xrotation
				JOINT LeftAnkle
				{
					OFFSET 2.54154 -6.98283 0.00000
					CHANNELS 3 Zrotation Yrotation Xrotation
					JOINT LeftToe
					{
						OFFSET 0.05971 -0.16406 1.77582
						CHANNELS 3 Zrotation Yrotation Xrotation
						End Site
						{
							OFFSET 0.00000 -0.00000 0.90832
						}
					}
				}
			}
		}
	}
	JOINT RHipJoint
	{
		OFFSET 0 0 0
		CHANNELS 3 Zrotation Yrotation Xrotation
		JOINT RightHip
		{
			OFFSET -1.65838 -1.63093 0.70830
			CHANNELS 3 Zrotation Yrotation Xrotation
			JOINT RightKnee
			{
				OFFSET -2.26926 -6.23475 0.00000
				CHANNELS 3 Zrotation Yrotation Xrotation
				JOINT RightAnkle
				{
					OFFSET -2.34808 -6.45129 0.00000
					CHANNELS 3 Zrotation Yrotation Xrotation
					JOINT RightToe
					{
						OFFSET -0.18633 -0.51195 1.68539
						CHANNELS 3 Zrotation Yrotation Xrotation
						End Site
						{
							OFFSET -0.00000 -0.00000 0.88927
						}
					}
				}
			}
		}
	}
	JOINT lowerback
	{
		OFFSET 0 0 0
		CHANNELS 3 Zrotation Yrotation Xrotation
		JOINT Chest
		{
			OFFSET -0.10393 2.01691 0.06920
			CHANNELS 3 Zrotation Yrotation Xrotation
			JOINT Chest2
			{
				OFFSET 0.04092 2.01302 -0.05283
				CHANNELS 3 Zrotation Yrotation Xrotation
				JOINT lowerneck
				{
					OFFSET 0 0 0
					CHANNELS 3 Zrotation Yrotation Xrotation
					JOINT Neck
					{
						OFFSET -0.02870 1.58978 -0.03113
						CHANNELS 3 Zrotation Yrotation Xrotation
						JOINT Head
						{
							OFFSET 0.11532 1.54326 -0.29195
							CHANNELS 3 Zrotation Yrotation Xrotation
							End Site
							{
								OFFSET 0.04056 1.59999 -0.09535
							}
						}
					}
				}
				JOINT LeftCollar
				{
					OFFSET 0 0 0
					CHANNELS 3 Zrotation Yrotation Xrotation
					JOINT LeftShoulder
					{
						OFFSET 3.30641 1.15764 0.01104
CHANNELS 3 Zrotation Xrotation Yrotation
						JOINT LeftElbow
						{
OFFSET 0 -4.632080 0.000000
CHANNELS 3 Zrotation Xrotation Yrotation
							JOINT LeftWrist
							{
OFFSET 0 -3.419240 -0.000000
CHANNELS 3 Zrotation Xrotation Yrotation
								JOINT lhand
								{
									OFFSET 0 0 0
CHANNELS 3 Zrotation Xrotation Yrotation
									JOINT LFingers
									{
OFFSET 0 -0.625370 -0.000000
CHANNELS 3 Zrotation Xrotation Yrotation
										End Site
										{
OFFSET 0 -0.504190 -0.000000
										}
									}
								}
								JOINT LThumb
								{
OFFSET 0 0.000000 0.000000
CHANNELS 3 Zrotation Xrotation Yrotation
									End Site
									{
OFFSET 0 -0.511890 0.511890
									}
								}
							}
						}
					}
				}
				JOINT RightCollar
				{
					OFFSET 0 0 0
					CHANNELS 3 Zrotation Yrotation Xrotation
					JOINT RightShoulder
					{
						OFFSET -3.78081 1.02180 -0.16609
CHANNELS 3 Zrotation Xrotation Yrotation
						JOINT RightElbow
						{
OFFSET 0 -4.406400 -0.000000
CHANNELS 3 Zrotation Xrotation Yrotation
							JOINT RightWrist
							{
OFFSET 0 -3.446750 0.000000
CHANNELS 3 Zrotation Xrotation Yrotation
								JOINT rhand
								{
									OFFSET 0 0 0
CHANNELS 3 Zrotation Xrotation Yrotation
									JOINT RFingers
									{
OFFSET 0 -0.513670 -0.000000
CHANNELS 3 Zrotation Xrotation Yrotation
										End Site
										{
OFFSET 0 -0.414140 -0.000000
										}
									}
								}
								JOINT RThumb
								{
OFFSET 0 0.000000 0.000000
CHANNELS 3 Zrotation Xrotation Yrotation
									End Site
									{
OFFSET 0 -0.420460 0.420460
									}
								}
							}
						}
					}
				}
			}
		}
	}
}
MOTION
Frames: 12
Frame Time: .0083333
10.3596 17.2079 15.8461 172.9410 -2.4429 -162.9150 0.0000 0.0000 0.0000 -16.5790 -13.7413 1.3480 0.3253 3.6662 10.1393 0.9183 -0.2978 -18.0182 13.1496 -18.8355 -69.5894 0.0000 0.0000 0.0000 -3.2404 13.9470 -23.1312 -0.3658 -3.8849 10.7530 0.1035 -7.9722 -8.8510 -3.3294 11.2102 -32.9920 -3.1406 -5.4396 -4.9647 6.6658 -7.6994 1.1087 7.9885 -4.1880 5.2973 0.9545 -2.7110 -13.1817 -1.2078 -1.4535 32.2384 -0.6678 0.1053 12.9176 -0.0000 0.0000 0.0000 -1.0331 -18.8461 -47.996 15.2277 -24.4624 3.3197 26.8833 6.1393 20.7337 0.0 0.0 0.0 -7.1250 0.0 0.0 -1.0649 6.9863 -0.9277 -0.0000 0.0000 0.0000 -5.8758 9.1835 -53.3204 -6.2869 -10.7398 -0.5915 -5.7389 65.4622 37.9205 0.0 0.0 0.0 7.1250 0.0 -0.0 36.4105 64.4197 -18.2585
10.4951 17.2723 15.7220 172.0640 -2.4123 -162.1220 0.0000 0.0000 0.0000 -16.6529 -13.8104 0.3529 0.3448 3.7730 10.4390 0.8868 -1.0930 -17.4619 13.2929 -18.8854 -70.0327 0.0000 0.0000 0.0000 -3.7539 13.6600 -23.1223 -0.3197 -3.6346 10.0508 0.1031 -7.9729 -8.8620 -3.1757 10.9742 -32.1930 -3.2096 -5.4608 -5.2106 6.6817 -7.7072 0.9348 8.0285 -4.1846 5.2655 1.0304 -2.6168 -13.0572 -1.5505 -1.2771 31.8775 -0.7882 0.1276 12.7378 0.0000 0.0000 0.0000 -0.603 -18.6442 -49.0248 15.6722 -25.0742 3.5059 25.725 6.3299 21.256 0.0 0.0 0.0 -7.1250 0.0 0.0 -1.8586 6.6356 -1.6323 0.0000 0.0000 0.0000 -6.2974 9.0448 -50.3989 -6.3883 -10.9083 -0.6106 -5.1223 61.4624 37.7122 0.0 0.0 0.0 7.1250 0.0 -0.0 36.7575 64.087 -18.1742
10.6229 17.3231 15.6039 171.2740 -2.1871 -161.7680 0.0000 0.0000 0.0000 -16.8276 -13.6601 -0.0416 0.3466 3.7829 10.4667 0.8797 -1.9331 -17.1762 13.3664 -18.9105 -70.2598 0.0000 0.0000 0.0000 -4.1623 13.7667 -22.7235 -0.2869 -3.4447 9.5194 0.0916 -7.8982 -9.0564 -3.0367 10.7543 -31.4556 -3.3818 -5.3925 -5.1045 6.6518 -7.5941 0.9155 8.1207 -4.1277 5.1841 0.8639 -2.5704 -12.7997 -1.7067 -1.1792 31.3811 -0.8040 0.1075 12.4805 -0.0000 -0.0000 0.0000 -0.1866 -18.507 -49.8325 16.1130 -25.6736 3.6948 24.4192 6.8324 22.229 0.0 0.0 0.0 -7.1250 0.0 0.0 -2.7893 5.8319 -2.4945 -0.0000 -0.0000 0.0000 -6.7384 8.8832 -48.0674 -6.4862 -11.0705 -0.6292 -4.3572 58.1455 37.9118 0.0 0.0 0.0 7.1250 0.0 -0.0 37.7854 64.0346 -18.7084
10.7448 17.3635 15.4966 170.4720 -1.9396 -161.6350 0.0000 0.0000 0.0000 -17.1699 -13.5924 -0.2481 0.3506 3.8045 10.5272 0.8931 -2.5314 -17.1840 13.3929 -18.9195 -70.3414 0.0000 0.0000 0.0000 -4.5791 13.9184 -22.2535 -0.2719 -3.3540 9.2659 0.0708 -7.7255 -9.3304 -3.0241 10.7340 -31.3878 -3.7264 -5.3626 -4.7752 6.5851 -7.5169 0.9033 8.2869 -4.0892 5.0074 0.6046 -2.5112 -12.2309 -1.7557 -1.0629 30.7870 -0.7561 0.1052 12.1246 -0.0000 0.0000 0.0000 0.1956 -18.2487 -50.1259 16.4974 -26.1904 3.8629 23.7458 7.6419 21.8847 0.0 0.0 0.0 -7.1250 0.0 0.0 -3.1750 6.3167 -2.8108 -0.0000 0.0000 0.0000 -7.2807 8.5561 -47.1568 -6.5014 -11.0957 -0.6322 -3.8237 56.8796 38.1608 0.0 0.0 0.0 7.1250 0.0 -0.0 38.6468 64.0813 -19.2394
10.8634 17.3998 15.3942 169.7830 -1.6860 -161.6910 0.0000 0.0000 0.0000 -17.4686 -13.3878 -0.4323 0.3583 3.8457 10.6429 0.9185 -2.8904 -17.3685 13.3630 -18.9093 -70.2493 0.0000 0.0000 0.0000 -4.7442 13.8767 -21.6983 -0.2611 -3.2873 9.0796 0.0451 -7.4070 -9.4821 -3.0415 10.7619 -31.4811 -3.8791 -5.1842 -4.3944 6.3488 -7.2452 1.0851 8.1801 -3.9472 4.9212 0.5184 -2.5382 -11.9253 -1.6793 -1.1927 30.1410 -0.7287 0.0192 11.8028 0.0000 0.0000 0.0000 0.8137 -18.163 -50.4494 16.7685 -26.5516 3.9833 23.9219 7.3713 22.7585 0.0 0.0 0.0 -7.1250 0.0 0.0 -3.1587 5.3597 -2.8542 0.0000 0.0000 0.0000 -7.5126 7.5979 -48.8533 -6.4259 -10.9705 -0.6177 -3.793 58.658 38.5368 0.0 0.0 0.0 7.1250 0.0 -0.0 39.1870 64.3607 -19.8003
10.9758 17.4376 15.2858 169.1900 -1.3410 -161.9010 0.0000 0.0000 0.0000 -17.7595 -12.9945 -0.4825 0.3593 3.8508 10.6574 0.9399 -3.0511 -17.5494 13.2660 -18.8761 -69.9497 0.0000 0.0000 0.0000 -4.7137 13.8892 -20.8948 -0.2406 -3.1569 8.7157 0.0299 -7.1796 -9.5168 -3.0476 10.7717 -31.5138 -3.9790 -4.9804 -4.0289 6.1225 -6.9526 1.3166 8.0509 -3.7989 4.8877 0.2552 -2.5520 -11.3919 -1.5578 -1.2792 29.3294 -0.6456 -0.0628 11.3794 0.0000 -0.0000 0.0000 1.3702 -17.9291 -50.2394 16.9142 -26.7445 4.0486 24.8203 7.1597 22.0708 0.0 0.0 0.0 -7.1250 0.0 0.0 -2.5203 5.9278 -2.2488 0.0000 -0.0000 0.0000 -7.8916 6.5079 -50.7119 -6.3208 -10.7961 -0.5979 -4.3139 61.5901 39.2446 0.0 0.0 0.0 7.1250 0.0 -0.0 39.6648 65.043 -20.6946
11.0836 17.4751 15.1749 168.5770 -1.1223 -161.9730 0.0000 0.0000 0.0000 -18.0309 -12.7767 -0.7137 0.3582 3.8451 10.6412 0.9512 -3.1049 -17.6495 13.1324 -18.8295 -69.5363 0.0000 0.0000 0.0000 -4.7848 13.9761 -20.1793 -0.2228 -3.0383 8.3854 0.0212 -7.1315 -9.6638 -2.9847 10.6702 -31.1754 -4.1744 -4.8533 -3.7968 5.9728 -6.7570 1.4033 8.0403 -3.6993 4.8169 -0.1722 -2.5450 -10.5959 -1.4342 -1.2836 28.4608 -0.5204 -0.1166 10.8936 -0.0000 -0.0000 0.0000 1.8288 -17.4657 -49.5779 16.9389 -26.7772 4.0598 25.6172 6.5535 21.8969 0.0 0.0 0.0 -7.1250 0.0 0.0 -2.0005 5.9672 -1.7828 -0.0000 -0.0000 0.0000 -8.4587 5.5994 -51.7482 -6.2464 -10.6724 -0.584 -5.3047 64.5013 39.5692 0.0 0.0 0.0 7.1250 0.0 -0.0 39.1512 65.5709 -20.8547
11.1904 17.5076 15.0671 168.1130 -1.1591 -161.7590 0.0000 0.0000 0.0000 -17.9485 -12.8360 -1.3727 0.3611 3.8603 10.6839 0.9615 -3.1598 -17.7395 12.9727 -18.7723 -69.0407 0.0000 0.0000 0.0000 -4.8010 13.9849 -19.8493 -0.2164 -2.9944 8.2632 0.0053 -7.0966 -9.9961 -2.8627 10.4694 -30.5105 -4.1185 -4.7913 -3.9960 5.7966 -6.6485 1.4358 7.8128 -3.6346 4.9152 -0.6240 -2.5255 -9.6816 -1.1309 -1.3236 27.5232 -0.3320 -0.1656 10.3708 0.0000 0.0000 0.0000 2.4925 -16.9506 -48.7377 16.9086 -26.7371 4.0461 26.1652 5.7949 21.6735 0.0 0.0 0.0 -7.1250 0.0 0.0 -1.6301 6.1048 -1.4481 0.0000 0.0000 0.0000 -8.8551 4.6869 -52.1389 -6.2149 -10.6201 -0.5782 -6.4879 67.1476 39.4793 0.0 0.0 0.0 7.1250 0.0 -0.0 37.8296 65.8438 -20.2904
11.2948 17.5316 14.9658 167.8660 -1.2988 -161.3030 0.0000 0.0000 0.0000 -17.4895 -13.0685 -2.3818 0.3660 3.8860 10.7562 0.9759 -3.1596 -17.8768 12.7699 -18.6975 -68.4093 0.0000 0.0000 0.0000 -4.6746 13.8978 -19.9205 -0.2166 -2.9963 8.2683 -0.0159 -6.9884 -10.3346 -2.7800 10.3302 -30.0527 -3.9534 -4.7569 -4.2810 5.7480 -6.5883 1.2797 7.6557 -3.5872 4.8755 -1.1042 -2.4595 -8.7871 -0.8039 -1.2755 26.7532 -0.1232 -0.1643 9.9243 -0.0000 0.0000 0.0000 2.9214 -16.2469 -47.4706 16.7287 -26.4988 3.9655 26.6605 5.3024 21.4851 0.0 0.0 0.0 -7.1250 0.0 0.0 -1.2960 6.2144 -1.1484 -0.0000 0.0000 0.0000 -9.3986 3.9646 -51.0308 -6.1855 -10.5712 -0.5728 -7.6025 68.2698 39.1481 0.0 0.0 0.0 7.1250 0.0 -0.0 36.2116 65.9096 -19.3729
11.3958 17.5483 14.8661 167.7800 -1.3934 -160.8960 0.0000 0.0000 0.0000 -16.8581 -13.3033 -3.3861 0.3687 3.9005 10.7968 0.9977 -3.0509 -18.1014 12.5609 -18.6178 -67.7560 0.0000 0.0000 0.0000 -4.3350 13.6546 -20.0524 -0.2184 -3.0085 8.3023 -0.0462 -6.6468 -10.5518 -2.7518 10.2819 -29.8946 -3.7775 -4.6901 -4.7256 5.7448 -6.4974 1.2104 7.5294 -3.5356 5.0180 -1.5940 -2.3769 -8.0874 -0.4404 -1.2003 26.1702 0.0983 -0.1432 9.5889 0.0000 0.0000 0.0000 3.213 -15.6452 -45.8603 16.3878 -26.0436 3.8146 27.5277 5.2075 21.6515 0.0 0.0 0.0 -7.1250 0.0 0.0 -0.7722 5.8661 -0.6893 0.0000 0.0000 0.0000 -10.0102 3.0929 -49.4198 -6.1474 -10.5078 -0.5658 -8.5666 68.3285 38.7403 0.0 0.0 0.0 7.1250 0.0 -0.0 34.6353 65.866 -18.4037
11.4948 17.5662 14.7646 167.6520 -1.5192 -160.9600 0.0000 0.0000 0.0000 -16.3896 -13.4846 -3.8754 0.3652 3.8817 10.7441 1.0191 -2.9553 -18.3184 12.3871 -18.5495 -67.2105 0.0000 0.0000 0.0000 -3.8492 13.3240 -19.5239 -0.2112 -2.9590 8.1645 -0.0787 -6.2554 -10.7570 -2.6880 10.1719 -29.5353 -3.7936 -4.6129 -4.6406 5.7534 -6.3967 1.2316 7.5660 -3.4867 4.9783 -2.0912 -2.3122 -7.7242 -0.1783 -1.0969 25.9041 0.2860 -0.1142 9.4321 0.0000 0.0000 0.0000 3.4956 -14.9151 -44.3066 16.0452 -25.5819 3.6655 28.5107 5.5032 21.5353 0.0 0.0 0.0 -7.1250 0.0 0.0 -0.1411 5.7957 -0.1261 0.0000 0.0000 0.0000 -10.6973 2.1786 -47.4771 -6.1542 -10.5191 -0.5671 -9.1152 67.4402 38.7696 0.0 0.0 0.0 7.1250 0.0 -0.0 34.1058 66.048 -18.2332
11.5832 17.5892 14.6557 167.4650 -1.5165 -161.6360 0.0000 0.0000 0.0000 -16.2762 -13.5613 -3.5340 0.3469 3.7844 10.4709 1.0406 -2.7096 -18.5636 12.2270 -18.4850 -66.7066 0.0000 0.0000 0.0000 -3.2562 13.0750 -18.1961 -0.1959 -2.8506 7.8630 -0.1100 -5.8513 -10.9303 -2.6460 10.0986 -29.2966 -3.8907 -4.4357 -4.0789 5.6623 -6.1672 1.4797 7.5848 -3.3801 4.8827 -2.3996 -2.2542 -7.5105 -0.1108 -0.9836 25.7171 0.3741 -0.0819 9.3285 -0.0000 -0.0000 0.0000 3.9315 -14.1605 -43.2391 15.8069 -25.2581 3.5632 27.3157 6.4873 20.9622 0.0 0.0 0.0 -7.1250 0.0 0.0 -0.8190 6.6565 -0.7187 -0.0000 -0.0000 0.0000 -11.2898 1.0055 -46.3323 -6.1747 -10.5533 -0.5708 -9.7804 66.9492 38.7653 0.0 0.0 0.0 7.1250 0.0 -0.0 33.4025 66.238 -17.9631
